<svg xmlns="http://www.w3.org/2000/svg" viewBox="0 0 128 128"><defs><radialGradient id="g" cx="35%" cy="30%"><stop offset="0" stop-color="#ff8a8a"/><stop offset="1" stop-color="#d90429"/></radialGradient></defs><path d="M67 30c13-18 28-16 38-9-5 14-20 21-36 16z" fill="#2a9d8f"/><path d="M62 34c2-12 7-20 16-27" stroke="#6b3f22" stroke-width="8" stroke-linecap="round" fill="none"/><path d="M63 39c-28-20-58 7-48 43 8 30 29 40 48 28 19 12 40 2 48-28 10-36-20-63-48-43z" fill="url(#g)"/><ellipse cx="43" cy="56" rx="13" ry="18" fill="#fff" opacity=".28"/><path d="M44 105c12 8 27 8 39 0" stroke="#9b1026" stroke-width="5" fill="none" opacity=".35"/></svg>