<svg xmlns="http://www.w3.org/2000/svg" width="1920" height="1080" viewBox="0 0 1920 1080">
  <defs>
    <radialGradient id="bg" cx="50%" cy="35%" r="80%"><stop offset="0" stop-color="#69e7ff"/><stop offset="0.42" stop-color="#243b88"/><stop offset="1" stop-color="#080816"/></radialGradient>
    <linearGradient id="title" x1="0" x2="1"><stop offset="0" stop-color="#fff06a"/><stop offset="0.45" stop-color="#ff6b6b"/><stop offset="1" stop-color="#7ef9ff"/></linearGradient>
    <filter id="glow"><feGaussianBlur stdDeviation="9" result="b"/><feMerge><feMergeNode in="b"/><feMergeNode in="SourceGraphic"/></feMerge></filter>
    <filter id="soft"><feDropShadow dx="0" dy="20" stdDeviation="18" flood-color="#000" flood-opacity="0.45"/></filter>
  </defs>
  <rect width="1920" height="1080" fill="url(#bg)"/>
  <g opacity=".18">
    <circle cx="220" cy="160" r="130" fill="#fff"/><circle cx="1640" cy="210" r="180" fill="#fff"/><circle cx="1480" cy="860" r="150" fill="#fff"/><circle cx="360" cy="850" r="200" fill="#fff"/>
  </g>
  <path d="M180 810 C520 500 790 430 1110 150" stroke="#fff" stroke-width="18" stroke-linecap="round" fill="none" filter="url(#glow)" opacity=".95"/>
  <path d="M220 845 C580 555 820 495 1160 190" stroke="#7ef9ff" stroke-width="5" stroke-linecap="round" fill="none" opacity=".95"/>
  <g filter="url(#soft)">
    <text x="960" y="255" text-anchor="middle" font-size="150" font-family="Arial Black, Impact, sans-serif" fill="url(#title)" stroke="#fff" stroke-width="4">Fruit Pop 2D</text>
    <text x="960" y="325" text-anchor="middle" font-size="42" font-family="Arial, sans-serif" fill="#ffffff" opacity=".94">Slice fruits, match combos, survive challenge events</text>
  </g>
  <g filter="url(#soft)">
    <g transform="translate(370 570) scale(2.15)">
      <path d="M67 30c13-18 28-16 38-9-5 14-20 21-36 16z" fill="#2a9d8f"/><path d="M62 34c2-12 7-20 16-27" stroke="#6b3f22" stroke-width="8" stroke-linecap="round" fill="none"/><path d="M63 39c-28-20-58 7-48 43 8 30 29 40 48 28 19 12 40 2 48-28 10-36-20-63-48-43z" fill="#e63946"/><ellipse cx="43" cy="56" rx="13" ry="18" fill="#fff" opacity=".3"/>
    </g>
    <g transform="translate(710 640) scale(2.0)">
      <circle cx="64" cy="68" r="42" fill="#ff9f1c"/><ellipse cx="80" cy="30" rx="18" ry="10" fill="#2a9d8f" transform="rotate(20 80 30)"/><path d="M64 24c2-8 7-14 13-18" stroke="#6b3f22" stroke-width="6" stroke-linecap="round" fill="none"/><ellipse cx="46" cy="50" rx="12" ry="16" fill="#fff" opacity=".28"/>
    </g>
    <g transform="translate(1050 545) scale(2.25)">
      <circle cx="64" cy="64" r="47" fill="#2a9d8f"/><circle cx="64" cy="64" r="34" fill="#ff4d6d"/><g fill="#111"><circle cx="50" cy="60" r="3"/><circle cx="70" cy="50" r="3"/><circle cx="78" cy="72" r="3"/><circle cx="56" cy="82" r="3"/></g>
    </g>
    <g transform="translate(1360 610) scale(1.9)">
      <path d="M64 22c-2 18-12 28-24 40" stroke="#2d6a4f" stroke-width="6" fill="none" stroke-linecap="round"/><path d="M64 22c2 18 12 28 24 40" stroke="#2d6a4f" stroke-width="6" fill="none" stroke-linecap="round"/><circle cx="42" cy="78" r="24" fill="#d90429"/><circle cx="86" cy="78" r="24" fill="#ef233c"/><ellipse cx="35" cy="68" rx="8" ry="10" fill="#fff" opacity=".25"/><ellipse cx="79" cy="68" rx="8" ry="10" fill="#fff" opacity=".25"/><ellipse cx="64" cy="18" rx="16" ry="8" fill="#2a9d8f"/>
    </g>
    <g transform="translate(1560 400) scale(1.8)">
      <path d="M28 34c12 50 44 72 82 60-22 24-77 16-95-40-4-12 3-21 13-20z" fill="#ffd166"/><path d="M37 40c10 39 37 55 66 49" stroke="#ffe8a1" stroke-width="8" fill="none" stroke-linecap="round"/><path d="M28 34c5-8 10-11 16-10" stroke="#6b3f22" stroke-width="6" stroke-linecap="round"/>
    </g>
  </g>
  <g opacity=".9" filter="url(#glow)">
    <circle cx="330" cy="420" r="9" fill="#fff06a"/><circle cx="500" cy="780" r="7" fill="#7ef9ff"/><circle cx="1230" cy="790" r="8" fill="#ff6b6b"/><circle cx="1520" cy="320" r="7" fill="#fff"/><circle cx="900" cy="450" r="5" fill="#fff06a"/>
  </g>
  <text x="960" y="980" text-anchor="middle" font-size="38" font-family="Arial, sans-serif" fill="#fff" opacity=".82">HTML5 Canvas Arcade Game</text>
</svg>